<?xml version="1.0" encoding="utf-8"?>
<!-- Generator: Adobe Illustrator 21.1.0, SVG Export Plug-In . SVG Version: 6.00 Build 0)  -->
<svg version="1.1" id="Layer_1" xmlns="http://www.w3.org/2000/svg" xmlns:xlink="http://www.w3.org/1999/xlink" x="0px" y="0px"
	 viewBox="0 0 336 336" style="enable-background:new 0 0 336 336;" xml:space="preserve">
<style type="text/css">
	.st0{fill-rule:evenodd;clip-rule:evenodd;fill:none;stroke:#000000;stroke-width:8;stroke-miterlimit:10;}
</style>
<circle class="st0" cx="168" cy="168" r="164" style="stroke:#fff500;"/>
<g>
	<g>
		<path style="fill:#fff500;" d="M85.5,136.6c23.1,29.5,46.2,59.1,69.3,88.6c3.3,4.2,6.5,8.4,9.8,12.6c4,5.1,11-2.1,7.1-7.1
			c-23.1-29.5-46.2-59.1-69.3-88.6c-3.3-4.2-6.5-8.4-9.8-12.6C88.6,124.5,81.5,131.6,85.5,136.6L85.5,136.6z"/>
	</g>
</g>
<g>
	<g>
		<path style="fill:#fff500;" d="M171.4,237.9c23.1-29.5,46.2-59.1,69.3-88.6c3.3-4.2,6.5-8.4,9.8-12.6c3.9-5-3.1-12.1-7.1-7.1
			c-23.1,29.5-46.2,59.1-69.3,88.6c-3.3,4.2-6.5,8.4-9.8,12.6C160.5,235.8,167.5,242.9,171.4,237.9L171.4,237.9z"/>
	</g>
</g>
</svg>
