<?xml version="1.0" encoding="utf-8"?>
<!-- Generator: Adobe Illustrator 21.1.0, SVG Export Plug-In . SVG Version: 6.00 Build 0)  -->
<svg version="1.1" id="Layer_1" xmlns="http://www.w3.org/2000/svg" xmlns:xlink="http://www.w3.org/1999/xlink" x="0px" y="0px"
	 viewBox="0 0 350 350" style="enable-background:new 0 0 350 350;" xml:space="preserve">
<style type="text/css">
	.st0{fill-rule:evenodd;clip-rule:evenodd;fill:none;stroke:#000000;stroke-width:8;stroke-miterlimit:10;}
</style>
<circle class="st0" cx="175" cy="175" r="164" style="stroke:#ffffff;"/>
<g>
	<g>
		<g>
			<path style="fill:#ffffff;" d="M211.9,237.7c-30.1-38.6-60.2-77.2-90.2-115.8c-4.3-5.6-8.7-11.1-13-16.7c-2.5-3.2-7.7-0.4-7.7,3.2
				c0,38.6,0,77.3,0,115.9c0,5.6,0,11.1,0,16.7c0,5.8,9,5.8,9,0c0-38.6,0-77.2,0-115.8c0-5.6,0-11.2,0-16.9
				c-2.6,1.1-5.1,2.1-7.7,3.2c30.2,38.8,60.4,77.5,90.6,116.3c4.2,5.4,8.4,10.8,12.6,16.2C209.1,248.6,215.4,242.2,211.9,237.7
				L211.9,237.7z"/>
		</g>
	</g>
	<g>
		<g>
			<path style="fill:#ffffff;" d="M145.2,244.1c29.9-38.4,59.9-76.9,89.8-115.3c4.2-5.4,8.4-10.8,12.6-16.2c-2.6-1.1-5.1-2.1-7.7-3.2c0,38.7,0,77.4,0,116
				c0,5.5,0,11.1,0,16.6c0,5.8,9,5.8,9,0c0-38.7,0-77.4,0-116.2c0-5.5,0-11,0-16.5c0-3.6-5.2-6.4-7.7-3.2
				c-29.9,38.4-59.9,76.9-89.8,115.3c-4.2,5.4-8.4,10.8-12.6,16.2C135.3,242.2,141.7,248.6,145.2,244.1L145.2,244.1z"/>
		</g>
	</g>
</g>
</svg>
